<svg xmlns="http://www.w3.org/2000/svg" width="25" height="25" viewBox="0 0 25 25">
  <g id="Icon" transform="translate(-2.005 -3)">
    <g id="Group_509" data-name="Group 509" transform="translate(2.005 3)">
      <path id="Path_6497" data-name="Path 6497" d="M26.882,11.181,25.569,5.111A2.526,2.526,0,0,0,23.18,3H5.812A2.527,2.527,0,0,0,3.437,5.111L2.124,11.181a5.1,5.1,0,0,0,.775,4,5.122,5.122,0,0,0,.35.4v9.639A2.658,2.658,0,0,0,5.75,28H23.255a2.658,2.658,0,0,0,2.5-2.778V15.583a4.915,4.915,0,0,0,.35-.389A5.078,5.078,0,0,0,26.882,11.181ZM23.143,5.764l1.313,6.069a2.047,2.047,0,0,1-.313,1.625,1.432,1.432,0,0,1-1.175.653,1.642,1.642,0,0,1-1.513-1.583l-.725-6.75Zm-7.39.014H18.2l.675,6.278a2.008,2.008,0,0,1-.413,1.486,1.429,1.429,0,0,1-1.188.569,1.7,1.7,0,0,1-1.525-1.819Zm-5.639,6.278L10.8,5.778h2.451v6.514a1.706,1.706,0,0,1-1.613,1.819,1.446,1.446,0,0,1-1.113-.569A2.123,2.123,0,0,1,10.114,12.056Zm-5.564-.222L5.812,5.778H8.276l-.725,6.75a1.652,1.652,0,0,1-1.513,1.583,1.407,1.407,0,0,1-1.163-.653A1.993,1.993,0,0,1,4.549,11.833Zm1.2,13.389V16.847a2.05,2.05,0,0,0,.288.042,3.735,3.735,0,0,0,2.8-1.319,3.83,3.83,0,0,0,2.888,1.319A3.778,3.778,0,0,0,14.515,15.6a3.9,3.9,0,0,0,2.863,1.292,3.788,3.788,0,0,0,2.8-1.319,3.735,3.735,0,0,0,2.8,1.319,2.051,2.051,0,0,0,.288-.042v8.375Z" transform="translate(-2.005 -3)" fill="#fff"/>
    </g>
  </g>
</svg>
