<svg xmlns="http://www.w3.org/2000/svg" width="20.513" height="24" viewBox="0 0 20.513 24">
  <g id="通知" transform="translate(-8730 1029.5)">
    <path id="Path_2190" data-name="Path 2190" d="M14.256,26.5a2.522,2.522,0,0,0,2.564-2.462H11.692A2.522,2.522,0,0,0,14.256,26.5Zm7.692-7.385V12.962c0-3.778-2.09-6.942-5.769-7.778V4.346a1.925,1.925,0,0,0-3.846,0v.837c-3.667.837-5.769,3.988-5.769,7.778v6.154L4,21.577v1.231H24.513V21.577Zm-2.564,1.231H9.128V12.962c0-3.052,1.936-5.538,5.128-5.538s5.128,2.486,5.128,5.538Z" transform="translate(8726 -1032)" fill="#fff"/>
  </g>
</svg>
