<svg xmlns="http://www.w3.org/2000/svg" width="67" height="67" viewBox="0 0 67 67">
  <path id="iconmonstr-calculator-10" d="M35.206,38.143a4.084,4.084,0,0,1,6.292,2.15,3.812,3.812,0,0,0-2.334-.8,4.159,4.159,0,0,0-2.418.8,3.952,3.952,0,0,0-1.538,4.5,4.087,4.087,0,0,1,0-6.647ZM40.993,60a44.635,44.635,0,0,1,13.956,7L67,58.379c-3.135-4.38-2.278-7.451-5.393-11.806-1.393-1.94-2.621-3.127-4.9-2.727l-.653.12,1.1,1.53a.856.856,0,0,1-1.393,1l-.98-1.368a1.484,1.484,0,0,0-1.53-.586l-2.222.5L52.363,46.9a.856.856,0,0,1-1.393.994l-1.15-1.608a1.49,1.49,0,0,0-1.569-.581l-2.258.567L47.4,48.237a.856.856,0,0,1-1.393,1l-4.629-6.516a2.34,2.34,0,1,0-3.805,2.725l7.348,10.329c-2.267-.835-5.748-1.189-6.39,1.147-.388,1.4.731,2.507,2.462,3.085ZM39.083,8.375H8.375V22.333H39.083ZM19.542,33.5h8.375V27.917H19.542ZM16.75,27.917H8.375V33.5H16.75Zm0,8.375H8.375v5.583H16.75ZM8.375,50.25H16.75V44.667H8.375ZM27.917,36.292H19.542v5.583h8.375Zm6.438,16.75H5.583V5.583H41.875V32.8c4.151,2.046,5.583,7.108,5.583,7.108V0H0V58.625H33A6.979,6.979,0,0,1,34.354,53.042ZM30.708,27.917V33.5h1.415a9.546,9.546,0,0,1,6.96-1.586v-4Zm-2.792,16.75H19.542V50.25h8.375Z" fill="#1cc839"/>
</svg>
