<svg id="Component_408_3" data-name="Component 408 – 3" xmlns="http://www.w3.org/2000/svg" width="120" height="120" viewBox="0 0 120 120">
  <path id="Shape" d="M77.861,1.329a4.2,4.2,0,0,1-.153,6.05L26.946,54.453a4.473,4.473,0,0,1-6.334-.281L1.088,32.446A4.2,4.2,0,0,1,1.5,26.407a4.475,4.475,0,0,1,6.2.4L24.205,45.178l47.445-44a4.476,4.476,0,0,1,6.211.149Z" transform="translate(20.895 32)" fill="#607ed5" fill-rule="evenodd"/>
  <g id="Path_12377" data-name="Path 12377" fill="none">
    <path d="M60,0A60,60,0,1,1,0,60,60,60,0,0,1,60,0Z" stroke="none"/>
    <path d="M 60 5 C 52.57283782958984 5 45.37049865722656 6.453498840332031 38.59306335449219 9.320121765136719 C 35.33515930175781 10.69809722900391 32.19252014160156 12.40390014648438 29.25245666503906 14.39018249511719 C 26.33904266357422 16.35843658447266 23.5992431640625 18.6190185546875 21.10912322998047 21.10912322998047 C 18.6190185546875 23.5992431640625 16.35843658447266 26.33904266357422 14.39018249511719 29.25245666503906 C 12.40390014648438 32.19252014160156 10.69809722900391 35.33515930175781 9.320121765136719 38.59306335449219 C 6.453498840332031 45.37049865722656 5 52.57283782958984 5 60 C 5 67.42715454101562 6.453498840332031 74.62950134277344 9.320121765136719 81.40693664550781 C 10.69809722900391 84.66484069824219 12.40390014648438 87.80747985839844 14.39018249511719 90.74754333496094 C 16.35843658447266 93.66095733642578 18.6190185546875 96.4007568359375 21.10912322998047 98.89088439941406 C 23.5992431640625 101.3809814453125 26.33904266357422 103.6415557861328 29.25245666503906 105.6098175048828 C 32.19252014160156 107.5960998535156 35.33515930175781 109.3019027709961 38.59306335449219 110.6798782348633 C 45.37049865722656 113.546501159668 52.57283782958984 115 60 115 C 67.42715454101562 115 74.62950134277344 113.546501159668 81.40693664550781 110.6798782348633 C 84.66484069824219 109.3019027709961 87.80747985839844 107.5960998535156 90.74754333496094 105.6098175048828 C 93.66095733642578 103.6415557861328 96.4007568359375 101.3809814453125 98.89088439941406 98.89088439941406 C 101.3809814453125 96.4007568359375 103.6415557861328 93.66095733642578 105.6098175048828 90.74754333496094 C 107.5960998535156 87.80747985839844 109.3019027709961 84.66484069824219 110.6798782348633 81.40693664550781 C 113.546501159668 74.62950134277344 115 67.42715454101562 115 60 C 115 52.57283782958984 113.546501159668 45.37049865722656 110.6798782348633 38.59306335449219 C 109.3019027709961 35.33515930175781 107.5960998535156 32.19252014160156 105.6098175048828 29.25245666503906 C 103.6415557861328 26.33904266357422 101.3809814453125 23.5992431640625 98.89088439941406 21.10912322998047 C 96.4007568359375 18.6190185546875 93.66095733642578 16.35843658447266 90.74754333496094 14.39018249511719 C 87.80747985839844 12.40390014648438 84.66484069824219 10.69809722900391 81.40693664550781 9.320121765136719 C 74.62950134277344 6.453498840332031 67.42715454101562 5 60 5 M 60 0 C 93.13707733154297 0 120 26.86292266845703 120 60 C 120 93.13707733154297 93.13707733154297 120 60 120 C 26.86292266845703 120 0 93.13707733154297 0 60 C 0 26.86292266845703 26.86292266845703 0 60 0 Z" stroke="none" fill="#607ed5"/>
  </g>
</svg>
