<svg xmlns="http://www.w3.org/2000/svg" width="58" height="52" viewBox="0 0 58 52">
  <g id="Group_20852" data-name="Group 20852" transform="translate(-604 -65)">
    <g id="BG" transform="translate(604 65)" fill="#4e73df">
      <path d="M 57.5 51.5 L 0.5 51.5 L 0.5 0.5 L 57.5 0.5 L 57.5 51.5 Z" stroke="none"/>
      <path d="M 1 1 L 1 51 L 57 51 L 57 1 L 1 1 M 0 0 L 58 0 L 58 52 L 0 52 L 0 0 Z" stroke="none" fill="#4e73df"/>
    </g>
    <g id="Group_20574" data-name="Group 20574" transform="translate(269 -2276)">
      <path id="ic_content_copy_24px" d="M16,1H4A2.006,2.006,0,0,0,2,3V17H4V3H16Zm3,4H8A2.006,2.006,0,0,0,6,7V21a2.006,2.006,0,0,0,2,2H19a2.006,2.006,0,0,0,2-2V7A2.006,2.006,0,0,0,19,5Zm0,16H8V7H19Z" transform="translate(353 2355)" fill="#fff"/>
      <path id="Path_997" data-name="Path 997" d="M0,0H24V24H0Z" transform="translate(352 2355)" fill="none"/>
    </g>
  </g>
</svg>
