<svg id="baseline-insert_invitation-24px" xmlns="http://www.w3.org/2000/svg" width="25" height="25" viewBox="0 0 25 25">
  <path id="Path_1305" data-name="Path 1305" d="M17.778,12.55H12.5V17.8h5.278ZM16.722,1V3.1H8.278V1H6.167V3.1H5.111a2.1,2.1,0,0,0-2.1,2.1L3,19.9A2.1,2.1,0,0,0,5.111,22H19.889A2.112,2.112,0,0,0,22,19.9V5.2a2.112,2.112,0,0,0-2.111-2.1H18.833V1Zm3.167,18.9H5.111V8.35H19.889Z" transform="translate(0 0)" fill="#fff"/>
  <path id="Path_1306" data-name="Path 1306" d="M0,0H25V25H0Z" fill="none"/>
</svg>
