<svg id="コンポーネント_408_2" data-name="コンポーネント 408 – 2" xmlns="http://www.w3.org/2000/svg" width="130" height="130" viewBox="0 0 130 130">
  <path id="Shape" d="M77.861,1.568a5.6,5.6,0,0,1-.153,7.138L26.946,64.241a4.085,4.085,0,0,1-3.229,1.387,4.2,4.2,0,0,1-3.106-1.718L1.088,38.278A5.588,5.588,0,0,1,1.5,31.154a4.008,4.008,0,0,1,6.2.473L24.205,53.3,71.651,1.392a4,4,0,0,1,6.211.176Z" transform="translate(26 32)" fill="#7f63f4" fill-rule="evenodd"/>
  <g id="パス_12377" data-name="パス 12377" fill="none">
    <path d="M65,0A65,65,0,1,1,0,65,65,65,0,0,1,65,0Z" stroke="none"/>
    <path d="M 65 5 C 56.89785766601562 5 49.04071044921875 6.585685729980469 41.64683532714844 9.713043212890625 C 38.09266662597656 11.21633148193359 34.66426849365234 13.07724761962891 31.45691680908203 15.24410247802734 C 28.27874755859375 17.39122772216797 25.28995513916016 19.85723114013672 22.57360076904297 22.57360076904297 C 19.85723114013672 25.28995513916016 17.39122772216797 28.27874755859375 15.24410247802734 31.45691680908203 C 13.07724761962891 34.66426849365234 11.21633148193359 38.09266662597656 9.713043212890625 41.64683532714844 C 6.585685729980469 49.04071044921875 5 56.89785766601562 5 65 C 5 73.10214233398438 6.585685729980469 80.95928955078125 9.713043212890625 88.35316467285156 C 11.21633148193359 91.90733337402344 13.07724761962891 95.33572387695312 15.24410247802734 98.54308319091797 C 17.39122772216797 101.7212524414062 19.85723114013672 104.7100372314453 22.57360076904297 107.4263916015625 C 25.28995513916016 110.1427688598633 28.27874755859375 112.608772277832 31.45691680908203 114.7558975219727 C 34.66426849365234 116.9227523803711 38.09266662597656 118.7836685180664 41.64683532714844 120.2869567871094 C 49.04071044921875 123.4143142700195 56.89785766601562 125 65 125 C 73.10214233398438 125 80.95928955078125 123.4143142700195 88.35316467285156 120.2869567871094 C 91.90733337402344 118.7836685180664 95.33572387695312 116.9227523803711 98.54308319091797 114.7558975219727 C 101.7212524414062 112.608772277832 104.7100372314453 110.1427688598633 107.4263916015625 107.4263916015625 C 110.1427688598633 104.7100372314453 112.608772277832 101.7212524414062 114.7558975219727 98.54308319091797 C 116.9227523803711 95.33572387695312 118.7836685180664 91.90733337402344 120.2869567871094 88.35316467285156 C 123.4143142700195 80.95928955078125 125 73.10214233398438 125 65 C 125 56.89785766601562 123.4143142700195 49.04071044921875 120.2869567871094 41.64683532714844 C 118.7836685180664 38.09266662597656 116.9227523803711 34.66426849365234 114.7558975219727 31.45691680908203 C 112.608772277832 28.27874755859375 110.1427688598633 25.28995513916016 107.4263916015625 22.57360076904297 C 104.7100372314453 19.85723114013672 101.7212524414062 17.39122772216797 98.54308319091797 15.24410247802734 C 95.33572387695312 13.07724761962891 91.90733337402344 11.21633148193359 88.35316467285156 9.713043212890625 C 80.95928955078125 6.585685729980469 73.10214233398438 5 65 5 M 65 0 C 100.8984985351562 0 130 29.10150146484375 130 65 C 130 100.8984985351562 100.8984985351562 130 65 130 C 29.10150146484375 130 0 100.8984985351562 0 65 C 0 29.10150146484375 29.10150146484375 0 65 0 Z" stroke="none" fill="#7f63f4"/>
  </g>
</svg>
