<svg xmlns="http://www.w3.org/2000/svg" width="79.34" height="52.995" viewBox="0 0 79.34 52.995">
  <g id="グループ_21413" data-name="グループ 21413" transform="translate(-21.66 -14.002)">
    <g id="合体_1" data-name="合体 1" transform="translate(-20988 -917)" fill="#686e7c">
      <path d="M 21087 983.49755859375 L 21039.16015625 983.49755859375 C 21039.0078125 983.49755859375 21038.857421875 983.4750366210938 21038.712890625 983.4306640625 L 21038.65625 983.4126586914062 L 21038.59375 983.4092407226562 C 21037.6015625 983.3533935546875 21036.666015625 982.9623413085938 21035.890625 982.2783203125 L 21011.68359375 960.869873046875 C 21010.71484375 960.0159912109375 21010.162109375 958.787841796875 21010.162109375 957.5 C 21010.16015625 956.2120971679688 21010.71484375 954.98388671875 21011.681640625 954.1301879882812 L 21035.892578125 932.72119140625 C 21036.6640625 932.0375366210938 21037.599609375 931.6466064453125 21038.59375 931.590576171875 L 21038.65625 931.587158203125 L 21038.712890625 931.5691528320312 C 21038.857421875 931.5247802734375 21039.0078125 931.5023193359375 21039.16015625 931.5023193359375 L 21087 931.5023193359375 C 21087.826171875 931.5023193359375 21088.5 932.173095703125 21088.5 932.9976196289062 L 21088.5 982.002197265625 C 21088.5 982.8267211914062 21087.826171875 983.49755859375 21087 983.49755859375 Z" stroke="none"/>
      <path d="M 21087 982.99755859375 C 21087.55078125 982.99755859375 21088 982.551025390625 21088 982.002197265625 L 21088 932.9976196289062 C 21088 932.4487915039062 21087.55078125 932.0023193359375 21087 932.0023193359375 L 21039.16015625 932.0023193359375 C 21039.05859375 932.0023193359375 21038.95703125 932.017333984375 21038.861328125 932.0469360351562 L 21038.744140625 932.0829467773438 L 21038.623046875 932.0897827148438 C 21037.740234375 932.1394653320312 21036.912109375 932.4873046875 21036.22265625 933.095703125 L 21012.013671875 954.5050048828125 C 21011.154296875 955.2637939453125 21010.66015625 956.3554077148438 21010.662109375 957.5 C 21010.662109375 958.6444702148438 21011.154296875 959.736083984375 21012.013671875 960.495361328125 L 21036.22265625 981.9033813476562 C 21036.912109375 982.5125122070312 21037.7421875 982.860595703125 21038.623046875 982.9100341796875 L 21038.744140625 982.9168701171875 L 21038.861328125 982.952880859375 C 21038.95703125 982.9825439453125 21039.05859375 982.99755859375 21039.16015625 982.99755859375 L 21087 982.99755859375 M 21087 983.99755859375 L 21039.16015625 983.99755859375 C 21038.953125 983.99755859375 21038.75390625 983.96630859375 21038.56640625 983.908447265625 C 21037.521484375 983.8497314453125 21036.46875 983.4546508789062 21035.560546875 982.6531982421875 L 21011.3515625 961.2444458007812 C 21009.09765625 959.2544555664062 21009.09765625 955.7454223632812 21011.3515625 953.75537109375 L 21035.560546875 932.3466186523438 C 21036.466796875 931.5453491210938 21037.521484375 931.1502075195312 21038.56640625 931.0913696289062 C 21038.75390625 931.0335083007812 21038.953125 931.0023193359375 21039.16015625 931.0023193359375 L 21087 931.0023193359375 C 21088.10546875 931.0023193359375 21089 931.8967895507812 21089 932.9976196289062 L 21089 982.002197265625 C 21089 983.1030883789062 21088.10546875 983.99755859375 21087 983.99755859375 Z" stroke="none" fill="#707070"/>
    </g>
    <g id="グループ_21412" data-name="グループ 21412" transform="translate(-7 0.5)">
      <line id="線_842" data-name="線 842" x2="27" y2="26" transform="translate(68 27)" fill="none" stroke="#fff" stroke-linecap="round" stroke-width="5"/>
      <line id="線_843" data-name="線 843" x2="27" y2="26" transform="translate(68.5 53.5) rotate(-90)" fill="none" stroke="#fff" stroke-linecap="round" stroke-width="5"/>
    </g>
  </g>
</svg>
