<svg xmlns="http://www.w3.org/2000/svg" width="67" height="67" viewBox="0 0 67 67">
  <path id="iconmonstr-qr-code-4" d="M54.437,41.875A12.562,12.562,0,1,0,67,54.437,12.562,12.562,0,0,0,54.437,41.875Zm-1.309,18.1-4.712-4.57,1.94-1.946,2.769,2.624,5.9-6.055,1.946,1.943ZM39.083,16.75h2.792V0H33.5V2.792H25.125V5.583H33.5V8.375h5.583ZM36.292,5.583V2.792h2.792V5.583ZM33.5,16.75H30.708V11.167H25.125V8.375H33.5v2.792h2.792v2.792H33.5Zm-16.75,0H5.583V5.583H16.75ZM64.208,30.708H61.417V25.125H58.625v8.847a20.689,20.689,0,0,0-2.99-.374l.2-.1V30.708H53.042V27.917H47.458V25.125H44.667v2.792H41.875V25.125H39.083v2.792H36.292V25.125H33.5v2.792H30.708v2.792H27.917V27.917h2.792V25.125H19.542v2.792h5.583v2.792H19.542V33.5h2.792v5.583h2.792V36.292h5.583v5.583H33.5V30.708h2.792v5.583h7.733a21,21,0,0,0-8.1,8.375h-5.22v2.792h4.009a21.039,21.039,0,0,0-1.153,5.583H30.708V47.458H27.917V50.25H25.125V67H41.373a18.12,18.12,0,0,1,25.5-25.734l.123.109V36.292H64.764l-.556-.352V33.5H67V27.917H64.208v2.792ZM41.875,33.5H39.083V30.708h2.792ZM33.5,64.208H27.917V61.417h2.792V58.625H27.917V55.833h5.67a20.694,20.694,0,0,0,2.353,8.375H33.5ZM50.25,33.5H47.458V30.708H50.25ZM27.917,19.542H25.125V16.75h5.583v5.583H27.917Zm33.5-2.792H50.25V5.583H61.417Zm-25.125,0h2.792v2.792H36.292ZM44.667,0V22.333H67V0ZM64.208,19.542H47.458V2.792h16.75Zm-30.708,0h2.792v2.792H33.5Zm5.583,2.792V19.542h2.792v2.792ZM27.917,41.875v5.583H25.125V41.875ZM19.542,27.917v2.792H16.75V27.917Zm36.292,0H53.042V25.125h2.792ZM16.75,25.125v2.792H11.167v2.792h2.792V33.5H5.583V30.708H8.375V27.917H2.792v2.792H0V25.125ZM0,67H22.333V44.667H0ZM2.792,47.458h16.75v16.75H2.792Zm16.75-8.375h2.792v2.792H19.542ZM5.583,50.25H16.75V61.417H5.583Zm8.375-13.958V33.5H16.75v8.375H13.958V39.083H11.167v2.792H8.375V39.083H5.583v2.792H0V39.083H2.792V36.292ZM2.792,33.5v2.792H0V33.5ZM22.333,0H0V22.333H22.333ZM19.542,19.542H2.792V2.792h16.75Z" fill="#f5b81c"/>
</svg>
