<svg id="グループ_21433" data-name="グループ 21433" xmlns="http://www.w3.org/2000/svg" width="61" height="60" viewBox="0 0 61 60">
  <path id="iconmonstr-synchronization-15" d="M18.86,12.889a10.732,10.732,0,0,1-5.6,1.577A10.819,10.819,0,0,1,3.044,0H.512A13.23,13.23,0,0,0,13.26,16.876a13.135,13.135,0,0,0,6.968-2.009l2.234,3.215,2.594-8.425H16.624l2.236,3.232Z" transform="matrix(0.574, -0.819, 0.819, 0.574, 31.817, 49.629)" fill="#232394"/>
  <path id="iconmonstr-synchronization-15-2" data-name="iconmonstr-synchronization-15" d="M25.108,14.465a13.189,13.189,0,0,1-.513,3.616H22.058a10.726,10.726,0,0,0,.635-3.616A10.871,10.871,0,0,0,11.824,3.616,10.752,10.752,0,0,0,6.2,5.2L8.446,8.438H0L2.6,0,4.833,3.222A13.249,13.249,0,0,1,25.108,14.465Z" transform="matrix(0.574, -0.819, 0.819, 0.574, 0, 20.568)" fill="#232394"/>
  <g id="長方形_12495" data-name="長方形 12495" transform="translate(14.598 18.16)" fill="#fff" stroke="#4e73df" stroke-width="3">
    <rect width="32.171" height="23" rx="3" stroke="none"/>
    <rect x="1.5" y="1.5" width="29.171" height="20" rx="1.5" fill="none"/>
  </g>
</svg>
